Coordinates
version=1
nRows=24
nColumns=22
inDegrees=yes

Units are S.I. units (second, meters, Newtons, ...)
If the header above contains a line with 'inDegrees', this indicates whether rotational values are in degrees (yes) or radians (no).

endheader
time	pelvis_tilt	pelvis_list	pelvis_rotation	pelvis_tx	pelvis_ty	pelvis_tz	hip_flexion_r	hip_adduction_r	hip_rotation_r	knee_angle_r	ankle_angle_r	subtalar_angle_r	hip_flexion_l	hip_adduction_l	hip_rotation_l	knee_angle_l	ankle_angle_l	subtalar_angle_l	lumbar_extension	lumbar_bending	lumbar_rotation
      4.12000000	      0.93630622	     -4.19496506	    -79.32965624	     -0.03841358	      0.99790516	      0.52583193	     21.11830563	      1.29867158	    -11.28197653	    -22.21219526	     -0.14601723	     -4.09639910	     -8.11308115	      2.81487866	     -6.83708888	    -17.32363519	     20.07218589	     -0.82711541	    -15.41505240	     -0.13750241	     -3.99421439
      4.13000000	      0.66527227	     -4.27847402	    -79.37372145	     -0.03746269	      0.99773772	      0.53302659	     21.02436263	      1.62475753	    -11.16199033	    -22.83258446	     -0.31844453	     -4.98594095	     -8.22165014	      2.48134953	     -6.82584981	    -18.05344868	     20.14635617	     -0.65983484	    -15.25359148	      0.29134015	     -3.94330746
      4.14000000	      0.35938865	     -4.37595594	    -79.46758992	     -0.03660985	      0.99782337	      0.54025807	     20.87396481	      2.00486573	    -11.02860093	    -23.38592615	     -0.31565400	     -5.69690302	     -8.32235595	      2.11502672	     -6.82305233	    -18.81561767	     20.11637432	     -0.44072870	    -15.10274546	      0.74994222	     -3.81570156
      4.15000000	      0.03652713	     -4.47662749	    -79.58754715	     -0.03587803	      0.99814355	      0.54744280	     20.65828286	      2.41653855	    -10.88340776	    -23.83347584	     -0.19080890	     -6.17616131	     -8.37672659	      1.72415444	     -6.83096290	    -19.65505569	     19.97801147	     -0.18320751	    -14.96628626	      1.21600935	     -3.67124852
      4.16000000	     -0.29636821	     -4.56524335	    -79.71072214	     -0.03521428	      0.99864757	      0.55453410	     20.38988832	      2.83191572	    -10.79138739	    -24.17224277	      0.06918809	     -6.41789237	     -8.35523058	      1.31810386	     -6.81299797	    -20.59148963	     19.77375765	      0.04775966	    -14.83239332	      1.68684690	     -3.50360330
      4.17000000	     -0.62875989	     -4.64700628	    -79.82764706	     -0.03468208	      0.99934634	      0.56152969	     20.04313219	      3.25316967	    -10.72955120	    -24.35930416	      0.37558573	     -6.58638099	     -8.26302302	      0.89744400	     -6.75805608	    -21.62456266	     19.44002073	      0.40933551	    -14.70923308	      2.13713839	     -3.34602038
      4.18000000	     -0.93829226	     -4.71816673	    -79.93301122	     -0.03422440	      1.00021606	      0.56840445	     19.62514497	      3.65205852	    -10.68930393	    -24.40570198	      0.71416776	     -6.64059100	     -8.10022945	      0.49366138	     -6.64352746	    -22.74650301	     18.96763009	      1.00538642	    -14.59767396	      2.55393265	     -3.20928190
      4.19000000	     -1.25375474	     -4.74816484	    -80.00577456	     -0.03381007	      1.00114447	      0.57514522	     19.17776702	      4.04454874	    -10.70920816	    -24.31009259	      1.05682738	     -6.57209266	     -7.80883317	      0.07746882	     -6.45910112	    -23.99090738	     18.44606122	      1.46491216	    -14.45309843	      2.96343952	     -3.08773771
      4.20000000	     -1.57798013	     -4.75940640	    -80.05791671	     -0.03340647	      1.00212233	      0.58175561	     18.70812206	      4.43270064	    -10.80509442	    -24.12797014	      1.39069474	     -6.48410132	     -7.42518873	     -0.35058867	     -6.21851202	    -25.33254222	     17.84295812	      1.83261198	    -14.29937904	      3.38018234	     -2.95858891
      4.21000000	     -1.86300344	     -4.72965025	    -80.09716249	     -0.03303578	      1.00312170	      0.58824902	     18.22305489	      4.78189298	    -10.87517130	    -23.84077480	      1.72120937	     -6.28318528	     -6.94486348	     -0.73305610	     -5.93745083	    -26.74701738	     17.13356533	      2.50291633	    -14.11576169	      3.73685396	     -2.83856864
      4.22000000	     -2.17259911	     -4.70574753	    -80.12003439	     -0.03263548	      1.00412196	      0.59461397	     17.71168307	      5.14735691	    -11.01965090	    -23.49296133	      1.99093987	     -6.15772234	     -6.40291734	     -1.14935822	     -5.65609371	    -28.24450449	     16.38211216	      2.84336475	    -13.94673702	      4.12764941	     -2.69496745
      4.23000000	     -2.44565794	     -4.63146465	    -80.14709671	     -0.03225223	      1.00504070	      0.60085031	     17.23422672	      5.47697707	    -11.09825035	    -23.10753670	      2.29440206	     -5.92969317	     -5.76794791	     -1.51734946	     -5.37853894	    -29.79037671	     15.54470350	      3.43615094	    -13.73601667	      4.46444341	     -2.54746453
      4.24000000	     -2.73220277	     -4.58310884	    -80.18621294	     -0.03186072	      1.00593624	      0.60696594	     16.73870245	      5.81676822	    -11.23433280	    -22.71934719	      2.52641973	     -5.77103445	     -5.11807964	     -1.91474905	     -5.17701621	    -31.38157647	     14.65210291	      3.79845284	    -13.56719078	      4.82050842	     -2.33625578
      4.25000000	     -2.99414049	     -4.51175270	    -80.24610121	     -0.03150234	      1.00672872	      0.61295315	     16.27515039	      6.13390499	    -11.32228273	    -22.33877853	      2.77459629	     -5.58576956	     -4.41825012	     -2.29070670	     -5.04011426	    -32.99876518	     13.69521696	      4.21146558	    -13.38892742	      5.13967033	     -2.09722527
      4.26000000	     -3.21085674	     -4.40597379	    -80.33453664	     -0.03116960	      1.00738578	      0.61879834	     15.87150974	      6.40253655	    -11.34857817	    -22.00573961	      3.09833122	     -5.34854193	     -3.66796317	     -2.61858756	     -4.97125995	    -34.63045873	     12.68019171	      4.75173296	    -13.19490905	      5.39728741	     -1.81979170
      4.27000000	     -3.42571570	     -4.32872038	    -80.44404084	     -0.03085541	      1.00798420	      0.62450067	     15.46485042	      6.67140828	    -11.38101405	    -21.70470253	      3.36632537	     -5.17473359	     -2.92397205	     -2.97214334	     -5.00228610	    -36.28463536	     11.64051705	      5.13286050	    -13.05191408	      5.65639872	     -1.50632256
      4.28000000	     -3.63069632	     -4.28066724	    -80.57427232	     -0.03056304	      1.00853862	      0.63006400	     15.04768703	      6.93921546	    -11.37631764	    -21.42675027	      3.58979074	     -5.05824480	     -2.19624047	     -3.34136067	     -5.11044218	    -37.94815789	     10.59580497	      5.38590429	    -12.96063997	      5.90753523	     -1.16733288
      4.29000000	     -3.80744514	     -4.21459443	    -80.71879507	     -0.03029679	      1.00896007	      0.63547206	     14.68915963	      7.17259576	    -11.34033739	    -21.21710193	      3.86666610	     -4.92582402	     -1.42976564	     -3.70215708	     -5.28685247	    -39.63121494	      9.58294521	      5.69535704	    -12.86837261	      6.11863878	     -0.81280754
      4.30000000	     -3.95287560	     -4.14676546	    -80.86703171	     -0.03003980	      1.00927460	      0.64072025	     14.37743636	      7.36381305	    -11.31560624	    -21.08616299	      4.19416694	     -4.78841681	     -0.64191504	     -4.05585631	     -5.51944725	    -41.32952458	      8.64378161	      6.05172033	    -12.79348761	      6.28867036	     -0.45761579
      4.31000000	     -4.11648160	     -4.14831794	    -81.01313058	     -0.02980550	      1.00962020	      0.64585590	     13.99433088	      7.59648635	    -11.24102842	    -20.93418505	      4.44111878	     -4.73698051	      0.08725424	     -4.47301246	     -5.79849720	    -43.01749688	      7.81439719	      6.22088670	    -12.80421323	      6.48751875	     -0.10512047
      4.32000000	     -4.28112397	     -4.13594585	    -81.15983529	     -0.02963734	      1.00983642	      0.65084675	     13.66776892	      7.82596029	    -11.17213256	    -20.84159191	      4.70602115	     -4.68656617	      0.85577645	     -4.92985750	     -6.13874314	    -44.70496030	      7.15567813	      6.42214749	    -12.80761821	      6.67044437	      0.24672152
      4.33000000	     -4.43978292	     -4.12594974	    -81.30023629	     -0.02952612	      1.00997427	      0.65570193	     13.36968741	      8.04692559	    -11.12154740	    -20.79127558	      4.97125840	     -4.65395135	      1.63434187	     -5.42283458	     -6.53138440	    -46.35569904	      6.67527653	      6.61456288	    -12.82148008	      6.83306636	      0.58982693
      4.34000000	     -4.61499649	     -4.16029980	    -81.42940018	     -0.02947766	      1.01012698	      0.66044300	     13.01937915	      8.30734622	    -11.01693734	    -20.70838958	      5.21702979	     -4.66189068	      2.36929337	     -5.97564733	     -6.93828780	    -47.93115945	      6.39183166	      6.68303491	    -12.88669568	      7.00767250	      0.92366128
      4.35000000	     -4.78872244	     -4.18772637	    -81.56058943	     -0.02950132	      1.01022197	      0.66503381	     12.70231958	      8.56644636	    -10.91231464	    -20.65519277	      5.44594452	     -4.68449672	      3.10814826	     -6.56822280	     -7.39674720	    -49.40433991	      6.32610763	      6.68704924	    -12.95035293	      7.16438239	      1.25741714
